<?xml version="1.0" encoding="UTF-8"?>
<svg id="Layer_2" data-name="Layer 2" xmlns="http://www.w3.org/2000/svg" viewBox="0 0 829.02 294.46">
  <defs>
    <style>
      .cls-1 {
        fill: #176394;
      }

      .cls-2 {
        fill: #78b23b;
      }

      .cls-3 {
        fill: #73b13a;
      }

      .cls-4 {
        fill: #64666d;
      }
    </style>
  </defs>
  <g id="Layer_1-2" data-name="Layer 1">
    <g>
      <g>
        <path class="cls-1" d="m353.69,168.68c-.05,9.75-.08,19.5.17,29.24.02.67-.02,1.33,0,2,.02.95-.45,1.36-1.37,1.36-1.83,0-3.67,0-5.5,0-1.75,0-3.5.03-5.25,0-1.97-.04-2.02-.11-2.14-2.17-.02-.33-.03-.67-.03-1,.08-13-.56-25.99-.36-38.99.02-1.25.11-2.49.14-3.74,0-.25-.13-.51-.44-.49-.13,0-.3.14-.37.27-.52.95-1.09,1.88-1.51,2.87-4.37,10.18-9.97,19.78-14.37,29.94-.5,1.16-1.14,1.75-2.39,1.75-2.75,0-5.5,0-8.25.11-1.5.06-1.72-1.04-2.16-1.99-2.58-5.6-5.33-11.11-8.31-16.51-.6-1.09-1.26-2.16-1.91-3.22-.17-.28-.38-.58-.78-.5-.42.08-.39.47-.46.78-.55,2.6-1.09,5.21-1.64,7.82-3.85,18.25-8.54,36.3-12.57,54.51-.38,1.71-.75,3.42-1.04,5.14-.18,1.06-.59,1.63-1.76,1.61-2.58-.05-5.17-.03-7.75.01-1.18.02-1.57-.54-1.68-1.64-.4-3.72-.88-7.44-1.34-11.15-1.6-12.89-3.29-25.77-4.77-38.67-.63-5.54-1.09-11.1-1.73-16.65-1.63-14.14-3.37-28.28-4.83-42.44-1.21-11.68-2.79-23.31-4.13-34.97-1.23-10.75-2.6-21.49-3.87-32.24-.48-4.05-.84-8.11-1.32-12.16-.09-.77.01-2.12-.75-2.12-.65,0-.59,1.39-.71,2.19-.79,5.02-2.07,9.94-3.13,14.9-3.18,14.98-6.24,29.99-9.47,44.96-2.86,13.26-5.63,26.54-8.27,39.85-1.78,8.98-3.85,17.9-5.8,26.85-.57,2.61-.57,2.58-3.23,2.69-2,.08-3.99.22-5.98.35-1.24.08-1.87-.24-2.16-1.7-1.48-7.52-3.5-14.91-5.47-22.31-1.37-5.15-2.64-10.32-3.96-15.48-.1-.4-.19-.81-.34-1.2-.08-.22-.23-.55-.4-.59-.37-.08-.63.23-.71.55-.43,1.67-1.58,2.91-2.48,4.3-.69,1.06-1.58,1.63-2.88,1.67-1.91.06-3.82.27-5.74.31-33.82.79-67.65.55-101.48.55-8.25,0-16.5-.04-24.75-.12-12.91-.14-25.83-.33-38.74-.5-.5,0-1,0-1.5-.04-.4-.02-.96-.02-.93-.55.03-.51.61-.47,1.01-.49,3.83-.14,7.66-.25,11.48-.52,7.15-.49,14.31-.8,21.46-1.16,9.65-.49,19.28-1.15,28.93-1.64,16.39-.83,32.78-1.58,49.17-2.42,10.32-.53,20.64-.93,30.95-1.41,8.07-.37,16.14-.75,24.2-1.36,1.36-.1,2.01-.54,2.54-1.83,2.1-5.17,4.06-10.39,5.86-15.67.4-1.16.92-1.86,2.24-1.84,2.25.03,4.5,0,6.75-.03,1.26-.02,1.65.57,1.8,1.79,1,7.95,3.06,15.68,5.11,23.41.62,2.33,1.2,4.68,1.8,7.01.12.49.24,1.14.8,1.12.51-.03.67-.69.78-1.16.7-3.17,1.4-6.34,2.05-9.52,2.55-12.48,5.1-24.95,7.63-37.43,2.61-12.89,5.21-25.78,7.78-38.68,2.91-14.62,6.25-29.14,9.46-43.69,1.02-4.63,1.79-9.32,2.66-13.98.45-2.42.62-2.59,3.07-2.6,1.92,0,3.83,0,5.75.07,2.79.1,3.17.55,3.4,3.46.35,4.4.63,8.81,1.13,13.19,1.39,12.24,2.32,24.53,3.56,36.79,1,9.94,2.14,19.86,3.24,29.79.86,7.78,1.73,15.56,2.65,23.33,1.26,10.67,2.6,21.32,3.85,31.99.76,6.45,1.38,12.91,2.11,19.36.77,6.78,1.59,13.56,2.39,20.33.73,6.2,1.46,12.4,2.19,18.6.11.89-.06,2.39.75,2.43,1.21.07.99-1.48,1.19-2.34,2.13-9.33,4.15-18.69,6.28-28.02,4.05-17.77,7.27-35.73,11.5-53.47,1.04-4.37,2.04-8.76,2.99-13.15.25-1.13.68-1.8,1.95-1.78,2.42.04,4.83,0,7.25-.01.82,0,1.42.18,1.62,1.15,1.52,7.27,4.08,14.24,6.2,21.33.21.72.54,1.43.6,2.16.13,1.53,1,1.91,2.35,1.89,7.41-.14,14.83.24,22.24.06,6.75-.16,13.5-.14,20.24-.19.42,0,.84,0,1.25.05.28.04.76-.13.71.41,0,.1-.41.23-.64.25-2.81.35-5.62.7-8.42,1.04-13.06,1.59-26.19,2.51-39.29,3.65-1.16.1-2.32.26-3.46.48-1.3.25-2.03-.19-2.4-1.49-.68-2.4-1.81-4.66-2.3-7.12-.08-.4-.17-.93-.63-.98-.63-.07-.76.57-.86,1.01-.5,2.28-.92,4.57-1.41,6.85-1.01,4.72-2.01,9.44-3.09,14.15-.38,1.63-.12,2.99.66,4.5,3.72,7.17,7.3,14.41,10.93,21.63.26.52.53,1.04.81,1.55.23.43.39,1.09.87,1.14.72.07.83-.72,1.06-1.22,3.71-7.73,7.38-15.49,11.12-23.2,2.14-4.42,4.44-8.76,6.6-13.17.4-.82.91-1.08,1.74-1.08,4.75,0,9.5-.05,14.25,0,1.9.02,1.98.11,2.02,2.02.1,4.5.24,9,.13,13.49-.15,5.92-.02,11.83-.03,17.75Z"/>
        <path class="cls-3" d="m340.91,47.6c8.55-.11,16.55,0,24.53.5,10.89.68,21.7,2.03,32.41,4.17,8.1,1.61,16.02,3.78,23.73,6.71,4.22,1.61,8.22,3.63,11.79,6.45,2.12,1.67,3.83,3.68,5.36,5.89,3.32,4.83,3.58,9.99,1.36,15.21-2.02,4.76-4.69,9.15-8.43,12.88-7.74,7.72-16.68,13.75-26.13,19.11-1.45.82-2.94,1.57-4.41,2.34-.3.16-.64.29-.91,0-.28-.29-.09-.62.09-.9.28-.41.58-.81.88-1.21,7.1-9.31,4.73-20.26-4.11-26.73-4.08-2.99-8.55-5.15-13.31-6.74-9.02-3.02-18.27-5-27.64-6.65-8.96-1.57-18-2.28-27.02-3.17-5.63-.55-11.31-.53-16.97-.74-10.57-.39-21.15-.43-31.73-.34-1.25.01-2.5.02-3.74.13-1.3.12-1.8-.51-1.96-1.69-.87-6.26-1.78-12.52-2.64-18.78-.26-1.88-.21-1.96,1.64-2.19,3.96-.48,7.94-.93,11.91-1.29,7.21-.66,14.43-1.25,21.64-1.87,3.4-.29,6.82-.45,10.22-.55,7.99-.23,15.97-.92,23.43-.55Z"/>
        <path class="cls-3" d="m221.74,59.53c1.04-.12,1.37.38,1.18,1.34-.33,1.63-.68,3.26-.99,4.89-.72,3.84-1.41,7.69-2.11,11.54-.32,1.73-.63,2.13-2.39,2.33-4.96.57-9.92,1.1-14.89,1.6-4.89.49-9.75,1.13-14.63,1.71-5.87.7-11.72,1.49-17.56,2.33-5.27.76-10.52,1.67-15.78,2.47-12.09,1.85-24.12,4.14-36.09,6.59-10.92,2.24-21.91,4.15-32.78,6.64-9,2.06-18.13,3.55-27.12,5.64-9.88,2.3-19.8,4.47-29.62,7.09-8.68,2.32-17.46,4.27-26.2,6.37-.73.17-1.48.26-2.22.35-.26.03-.54-.11-.55-.38,0-.2.14-.53.3-.6,1.22-.53,2.45-1.04,3.69-1.5,10.87-3.99,21.93-7.4,32.92-11.01,23.65-7.78,47.44-15.05,71.46-21.59,10.68-2.91,21.33-5.94,32.05-8.67,14.19-3.61,28.46-6.91,42.79-9.97,11.07-2.36,22.18-4.52,33.33-6.46,1.72-.3,3.46-.48,5.19-.72Z"/>
        <path class="cls-1" d="m468.34,166.59c0,10.33,0,20.65,0,30.98,0,.5.01,1,0,1.5-.05,2.14-.12,2.21-2.3,2.22-2.66.01-5.33.03-7.99-.02-1.84-.03-1.86-.07-2.18-1.96-.17-.98-.23-1.99-.42-2.97-.15-.77-.59-.97-1.22-.38-.18.17-.33.37-.51.55-3.1,3.14-6.83,4.98-11.21,5.48-5.24.6-10.32.08-15.01-2.51-6.28-3.46-9.27-9.17-10.31-15.97-.63-4.12-.56-8.32-.02-12.46,1.3-9.93,9.07-17.15,19.07-18.11,5.73-.55,10.9.63,15.57,4.03.64.46,1.35,1.41,2.12.98.78-.44.24-1.53.24-2.32,0-7.24-.02-14.49-.1-21.73-.01-1.31.46-1.78,1.72-1.77,3.5.03,6.99-.02,10.49,0,1.89,0,1.98.12,1.98,1.99,0,10.82,0,21.65,0,32.47.03,0,.05,0,.08,0Zm-14.14,10.13s-.04,0-.06,0c0-2.33,0-4.66,0-6.99,0-.76-.06-1.47-.59-2.1-2.04-2.39-4.36-4.33-7.53-5.04-6.86-1.53-12.77,2.26-13.91,8.67-.71,3.99-.7,7.97.06,11.91,1.25,6.57,6.14,10.14,12.8,9.54,5.21-.47,9.19-4.76,9.24-9.99.02-2,0-4,0-5.99Z"/>
        <path class="cls-1" d="m393.51,181.22c-5,0-9.99.1-14.99-.13-1.88-.09-2.05.17-1.66,1.96,1.11,5.09,4.85,8.55,10.4,9.44,6.16.99,12.11.19,17.81-2.36,2.8-1.26,2.78-1.29,2.95,1.7.1,1.75.19,3.49.35,5.23.12,1.28-.36,1.93-1.62,2.36-7.96,2.7-16.06,3.49-24.37,2.18-2.32-.37-4.53-1.02-6.68-1.97-7.29-3.23-11.61-8.82-12.85-16.62-.97-6.09-.78-12.17,2.25-17.78,3.98-7.35,10.22-11.43,18.53-12.28,2.07-.21,4.15-.15,6.24-.07,4.75.18,8.94,1.89,12.74,4.59,4.62,3.28,7.03,7.92,7.72,13.46.31,2.47.35,4.98.4,7.48.05,2.8,0,2.82-2.73,2.82-4.83,0-9.66,0-14.49,0Zm-6.22-7.85v.06c3.16,0,6.31,0,9.47,0,.86,0,1.81,0,1.67-1.25-.42-3.48-1.46-6.69-4.55-8.77-6.21-4.17-16.01-1.88-17.48,8-.24,1.6.02,1.92,1.68,1.94,3.07.05,6.15.01,9.22.01Z"/>
        <path class="cls-2" d="m652.79,184.23c0,4.83.02,9.66,0,14.49-.01,2.24-.18,2.4-2.42,2.44-2.41.04-4.83.06-7.24.03-2.28-.03-2.4-.18-2.53-2.39,0-.08,0-.17-.01-.25-.12-.96.3-2.3-.73-2.72-1.07-.44-1.68.85-2.38,1.48-3.27,2.96-7.36,3.83-11.5,4.32-4.25.5-8.43.1-12.44-1.76-9.25-4.28-9.92-17.13-2.3-22.54,3.43-2.43,7.19-3.76,11.29-4.31,4.55-.61,9.13-.59,13.71-.72.67-.02,1.33-.03,1.99-.08.9-.07,1.29-.57,1.32-1.48.1-3.68-2.26-7.01-5.88-8.08-5.12-1.51-10.21-1.04-15.25.42-1.76.51-3.48,1.12-5.21,1.71-.88.3-1.36.11-1.61-.88-.45-1.78-.7-3.59-1.14-5.36-.36-1.46.23-1.99,1.4-2.37,3.49-1.12,7.06-1.94,10.68-2.5,5.63-.88,11.24-1.04,16.85.22,9.25,2.08,13.09,7.22,13.41,16.6.16,4.57.03,9.16.03,13.74h-.02Zm-19.09-4.94c-2.67-.08-5.72.27-8.71.98-4.82,1.14-7.2,6.51-4.51,10.24,1.59,2.21,3.95,3.31,6.64,3.43,4.72.2,8.53-1.72,11.5-5.35.53-.65.92-1.41.94-2.26.03-1.74,0-3.48-.05-5.23-.03-1.22-.71-1.8-1.9-1.8-1.16,0-2.32,0-3.91,0Z"/>
        <path class="cls-2" d="m512.28,153.9c1.92,0,3.84.09,5.74-.02,1.85-.11,3.11.47,4.09,2.15,2.45,4.18,5.72,7.77,8.7,11.56,1.25,1.59,1.68,1.59,2.72-.1,2.53-4.12,5.53-7.92,8.18-11.95.98-1.49,2.16-2.05,3.94-1.99,3.66.12,7.33.02,10.99.04.64,0,1.49-.21,1.79.52.28.69-.39,1.23-.83,1.7-4.39,4.69-8.11,9.92-12.25,14.82-1.45,1.71-2.74,3.56-4.15,5.31-.64.8-.57,1.42.07,2.19,5.62,6.8,11.21,13.63,16.8,20.46.5.61,1.54,1.13,1.12,2.02-.32.66-1.35.48-2.08.52-4.08.22-8.15-.08-12.22-.32-1.01-.06-1.67-.54-2.27-1.31-3.33-4.27-6.83-8.4-9.88-12.88-.19-.28-.36-.57-.57-.82-.9-1.09-1.26-1.09-2.07.02-.29.4-.54.84-.8,1.27-2.59,4.28-5.48,8.35-8.41,12.4-.87,1.2-1.85,1.75-3.33,1.74-4.16-.05-8.33,0-12.49,0-.55,0-1.28.25-1.55-.44-.2-.52.36-.87.68-1.23,5.23-6.05,10.27-12.25,15.1-18.62.81-1.06,1.66-2.09,2.71-2.92.5-.4.81-.78.23-1.42-4.16-4.65-7.73-9.78-11.87-14.45-2.04-2.3-3.82-4.83-5.7-7.27-.2-.25-.48-.6-.43-.85.11-.53.66-.39,1.05-.39,2.33-.01,4.66,0,6.99,0,0,.1,0,.2,0,.3Z"/>
        <path class="cls-2" d="m767.06,184.16c0-4.66-.02-9.33,0-13.99.01-2.46.13-2.55,2.52-2.56,1.67,0,3.33.05,5,0,1.44-.05,2.33.39,2.67,1.95.3,1.37.64,1.45,1.56.53,4.64-4.63,15.62-5.59,21.14.47.92,1.01,1.68,1.01,2.76.2,3.33-2.49,7.01-4.14,11.22-4.43,4.43-.31,8.45.77,11.75,3.8,2.13,1.95,3,4.61,3.14,7.41.36,7.24.12,14.49.15,21.73,0,1.18-.36,1.92-1.69,1.9-2.66-.02-5.33,0-7.99,0-1.23,0-1.46-.61-1.39-1.77.34-5.99.18-11.98.16-17.98,0-.5-.05-1-.13-1.49-.64-4.24-3.41-6.6-7.5-6.39-4.04.21-6.91,3.17-6.97,7.32-.06,4.5,0,8.99,0,13.49,0,1.25,0,2.5-.02,3.75-.05,2.6-.14,2.7-2.64,2.8-1.91.07-3.82.12-5.74.15-2.39.04-2.42.02-2.43-2.5-.03-5.08-.02-10.16-.03-15.24,0-.83.03-1.67,0-2.5-.2-5.42-4.42-8.28-9.52-6.47-3.69,1.31-5.14,3.33-5.17,7.27-.04,5.5-.06,10.99-.1,16.49-.02,2.66-.11,2.75-2.85,2.79-1.91.02-3.83.04-5.74-.02-1.88-.06-2.15-.31-2.16-2.23-.04-4.83-.01-9.66-.01-14.49.01,0,.02,0,.03,0Z"/>
        <path class="cls-2" d="m719.08,183.75c-.05-9.25,5.73-15.27,14.73-17.13,3.68-.76,7.42-.92,11.16-.09,2.13.47,4.18,1.13,6.11,2.13,7.09,3.68,10.44,10.42,9.12,18.29-1.32,7.86-6.61,13.03-14.67,14.24-3.71.56-7.42.74-11.19.18-8.67-1.29-15.31-8.85-15.26-17.62Zm30.06-.21c.05-1.19-.15-2.41-.44-3.63-1.06-4.5-4.43-7.09-9.06-6.95-4.06.12-7.46,3.15-8.3,7.33-.57,2.83-.4,5.61.41,8.38,1.15,3.94,3.99,6.24,7.94,6.33,3.93.09,7.32-2.27,8.56-5.99.58-1.74.94-3.53.88-5.45Z"/>
        <path class="cls-2" d="m568.06,177.42c0-7.08,0-14.15,0-21.23,0-2.55.07-2.61,2.7-2.61,2.75,0,5.5,0,8.24.06,2.08.04,2.29.27,2.37,2.3.05,1.16,0,2.33.06,3.5.04.8-.09,1.82.91,2.09.91.25,1.23-.69,1.66-1.26,2.57-3.48,5.95-5.76,10.1-6.92,2.13-.59,4.3-.34,6.45-.25.94.04,1.3.65,1.27,1.52-.08,2.66.07,5.33-.31,7.98-.28,1.99-.39,2.12-2.35,1.94-2-.18-3.98-.08-5.97.15-3.73.44-6.74,2.24-9.42,4.73-1.03.96-1.44,2.13-1.54,3.54-.41,5.74-.22,11.48-.23,17.23,0,3,.05,5.99.04,8.99,0,1.84-.13,1.99-1.99,2.02-3.33.05-6.66.05-9.99,0-1.81-.02-1.95-.18-1.95-2.06-.02-7.24,0-14.49,0-21.73h-.05Z"/>
        <path class="cls-1" d="m479.17,177.4c0-7.32,0-14.64,0-21.96,0-1.92.03-1.98,1.91-1.99,3.66-.04,7.32-.03,10.98.02,1.78.02,1.86.11,1.86,1.84.02,14.64.02,29.28,0,43.93,0,2.03-.07,2.07-2.15,2.08-3.49.02-6.99,0-10.48-.03-1.91-.02-2-.04-2.02-1.92-.06-5.16-.04-10.32-.05-15.47,0-2.16,0-4.33,0-6.49-.02,0-.04,0-.06,0Z"/>
        <path class="cls-2" d="m702.55,201.8c-3.95.04-7.68-.66-11.24-2.24-6.24-2.76-9.47-7.53-9.85-14.37-.32-5.77,1.3-10.69,5.74-14.51,3.5-3.01,7.73-4.21,12.2-4.55,4.52-.34,8.98.18,13.27,1.73,1.73.62,1.91.78,1.57,2.51-.27,1.37.19,3.2-.85,4.03-1.14.91-2.65-.38-4-.64-2.72-.54-5.43-.77-8.17-.12-4.91,1.15-8.28,5.17-8.28,9.93,0,5.72,3.05,9.84,8.23,11.06,3.53.83,6.95.22,10.31-.88.39-.13.78-.3,1.16-.47,1.11-.47,1.55.06,1.64,1.1.1,1.33.15,2.66.3,3.98.12,1.05-.37,1.57-1.29,1.8-3.55.89-7.1,1.84-10.75,1.64Z"/>
        <path class="cls-1" d="m487.64,143.76c-2.75.21-4.65.23-6.56.12-1.16-.06-1.58-.57-1.68-1.67-.25-2.82-.17-5.64-.18-8.46,0-1.13.56-1.64,1.67-1.7,3.9-.19,7.79-.23,11.69-.18,1.09.01,1.42.58,1.41,1.57-.03,2.82.02,5.64-.04,8.46-.03,1.64-.19,1.77-1.93,1.83-1.74.06-3.48.01-4.38.01Z"/>
        <path class="cls-2" d="m668.82,190.93c.68.05,1.27.05,1.84.14,2.71.44,4.27,2.27,4.26,4.95-.01,3.03-1.38,4.75-4.21,5.25-1.47.26-2.93.52-4.44.05-2.58-.8-4.19-2.81-4.09-5.29.1-2.49,1.85-4.43,4.5-4.93.73-.14,1.49-.13,2.13-.18Z"/>
      </g>
      <g>
        <path class="cls-4" d="m507.75,265.96c.44-4.91.4-9.83.35-14.74,0-.83.02-1.67.05-2.5.03-.68.37-1.08,1.08-1.1.33-.01.67-.04,1-.02,1.66.09,3.56-.55,4.92.27,1.38.83,1.48,2.87,2.05,4.41,2.82,7.58,6.83,14.64,9.62,22.23.16.45.26,1.05.88,1.09.73.05.91-.6,1.18-1.1.12-.22.22-.45.31-.68,2.83-7.39,6.63-14.35,9.36-21.79,1.94-5.3,1.15-4.24,6.36-4.38,2.47-.07,2.52,0,2.49,2.49-.09,9.17.08,18.33.32,27.49.04,1.66.16,3.33.21,4.99.02.49.01,1.09-.62,1.2-1.24.22-2.49.17-3.73.03-.48-.06-.68-.46-.72-.89-.05-.66-.06-1.33-.05-2,.09-8.25-.41-16.49-.14-24.74,0-.25.03-.5-.01-.75-.04-.23-.08-.58-.23-.66-.4-.19-.6.2-.73.47-1.07,2.26-2.13,4.52-3.16,6.79-2.46,5.46-4.88,10.95-7.36,16.41-1.1,2.43-2.34,2.95-4.95,2.44-1-.2-1.31-.95-1.66-1.69-1.15-2.4-2.28-4.82-3.39-7.24-1.89-4.08-3.78-8.16-5.63-12.25-.62-1.36-1.14-2.77-1.69-4.16-.15-.37-.13-1.02-.57-.98-.59.05-.59.71-.61,1.2-.03.58-.02,1.17-.02,1.75-.03,8.16-.04,16.33-.08,24.49,0,1.72-.12,1.79-1.85,1.87-.17,0-.33,0-.5,0-2.47,0-2.48,0-2.48-2.48,0-5.17,0-10.33,0-15.5Z"/>
        <path class="cls-4" d="m71.44,266.01c0,5.25,0,10.5,0,15.75,0,.71.28,1.7-.63,1.96-1.19.34-2.46.36-3.66-.11-.32-.12-.36-.54-.37-.87-.01-.67-.02-1.33-.02-2-.04-8.08.07-16.17-.28-24.24-.03-.63.24-1.61-.51-1.75-.75-.15-.87.86-1.13,1.44-3.42,7.59-6.88,15.17-10.2,22.8-.67,1.54-1.63,1.82-3.09,1.89-1.5.07-2.46-.26-3.12-1.75-3.36-7.53-6.82-15.01-10.25-22.51-.21-.45-.41-.91-.65-1.35-.07-.12-.26-.25-.4-.26-.28-.01-.45.22-.46.47-.03.58-.01,1.17-.01,1.75,0,8.08,0,16.17-.03,24.25,0,.79.36,1.9-.58,2.24-1.16.42-2.46.32-3.69-.03-.34-.1-.47-.47-.49-.8-.03-.5-.03-1-.03-1.5,0-10.42,0-20.83,0-31.25,0-.42.02-.83,0-1.25-.03-.96.49-1.34,1.39-1.33,1.75.02,3.5.05,5.25.03.92,0,1.31.52,1.6,1.29.62,1.64,1.32,3.24,1.91,4.89,2.46,6.92,6.08,13.33,8.77,20.15.12.31.27.62.47.88.39.53.88.51,1.2-.01.39-.63.7-1.32.96-2.02,2.94-7.89,7.38-15.12,10.08-23.11.54-1.59,1.47-2.28,3.16-2.12,1.16.11,2.33.01,3.5.02.81,0,1.22.43,1.25,1.23.02.58.02,1.17.02,1.75,0,5.17,0,10.33,0,15.5,0,0,.02,0,.02,0Z"/>
        <path class="cls-4" d="m366.28,271.2c0-3.58.01-7.17,0-10.75,0-.94.15-1.6,1.31-1.68,1.77-.12,2.62.25,2.91,1.44.38,1.5.44,1.58,1.61.57,2.43-2.11,5.29-2.73,8.37-2.59,2.49.12,4.76.91,6.38,2.93.74.92,1.22,1.07,2.14.14,3.11-3.16,6.97-3.6,11.1-2.75,2.24.46,3.64,1.9,4.49,3.95.65,1.55.99,3.17.99,4.86,0,4.75.04,9.5.02,14.25,0,.78.36,1.87-.64,2.2-1.18.39-2.48.32-3.69-.05-.41-.12-.42-.68-.42-1.1.02-1.42.07-2.83.08-4.25.04-3.42.08-6.83.08-10.25,0-.83-.07-1.67-.25-2.48-.48-2.24-2.24-3.81-4.54-3.97-2.39-.16-4.65.17-6.43,2.05-1.19,1.27-1.89,2.66-1.86,4.47.06,4.42.04,8.83,0,13.25,0,.78.45,1.85-.51,2.25-1.07.45-2.32.35-3.44.05-.66-.18-.53-.94-.48-1.52.35-4.33.14-8.66.2-12.99,0-.42,0-.83,0-1.25-.08-3.4-1.4-5.55-3.74-6.09-3.34-.78-7.32.82-8.71,3.49-.56,1.09-.47,2.27-.46,3.43.04,4.17.11,8.33.11,12.5,0,.86.41,2.03-.7,2.43-1.08.39-2.33.36-3.44-.02-.77-.26-.55-1.13-.55-1.76-.02-3.58,0-7.17,0-10.75h.06Z"/>
        <path class="cls-4" d="m131,264.76c0,5.58.01,11.15,0,16.73,0,2.23-1.45,3.14-3.56,2.34-.71-.27-.62-.88-.77-1.42-.38-1.31-.65-1.45-1.6-.59-2.57,2.3-5.65,2.73-8.87,2.48-3.19-.24-5.8-1.74-7.25-4.63-2.78-5.57-2.97-11.23.37-16.66,3.06-4.99,10.51-6.47,15.4-3.23.4.26.75.82,1.28.5.47-.29.3-.9.3-1.38.03-3.91.04-7.82.08-11.73,0-.69-.35-1.72.61-1.92,1.19-.25,2.52-.48,3.63.17.6.35.34,1.23.34,1.88.01,4.83.01,9.65.01,14.48,0,1,0,2,0,3h.03Zm-4.4,5.7c-.08,0-.17,0-.25,0,0-1.16-.05-2.33.01-3.49.12-2.1-.98-3.46-2.65-4.46-3.6-2.16-9.29-.57-10.97,3.26-1.76,4.01-1.64,8.12.44,12.04.94,1.77,2.46,2.89,4.48,3.28,4.35.86,9.34-2.99,8.96-7.39-.09-1.07-.01-2.16-.01-3.24Z"/>
        <path class="cls-4" d="m284.46,276.8c0,5.08,0,10.16,0,15.24,0,.8.25,1.82-.8,2.14-1.12.35-2.33.4-3.43-.04-.6-.24-.43-1.02-.43-1.59-.02-2.5-.01-5-.02-7.5,0-.67.02-1.33,0-2-.07-1.88-.25-1.99-1.78-1.07-.43.26-.83.55-1.26.8-7.01,4.09-14.81.66-16.27-7.29-.56-3.03-.63-6.15.26-9.17,2.12-7.2,9.66-10.41,16.37-7.01.59.3,1.17.64,1.73,1,.75.48,1.18.63,1.61-.5.56-1.47,1.99-.77,3.06-.72,1.04.04.98.95.99,1.7,0,5.33,0,10.66,0,15.99h0Zm-4.61-5.8s-.06,0-.09,0c0-1.5,0-3,0-4.5,0-.67-.04-1.34-.51-1.89-2.07-2.4-4.72-3.33-7.82-2.94-2.9.37-4.98,1.87-5.81,4.74-.94,3.26-1.06,6.57-.06,9.85.97,3.21,3.39,4.92,6.74,4.85,2.16-.05,4.04-.87,5.69-2.24,1.3-1.08,2-2.38,1.87-4.13-.09-1.24-.02-2.5-.02-3.74Z"/>
        <path class="cls-4" d="m677.75,276.42c0-5.08-.01-10.15.01-15.23,0-.77-.35-1.81.74-2.14,1.05-.32,2.16-.21,3.16.23.53.23.3.88.39,1.35.23,1.27.48,1.36,1.56.57.2-.15.37-.34.56-.49,6.04-4.85,14.16-2.89,17.15,4.25,2.02,4.83,1.59,9.68-1.04,14.16-3.33,5.67-10.41,7.09-15.83,3.38-.27-.19-.52-.42-.8-.59-.72-.43-1.09-.17-1.12.63-.03,1-.04,2-.06,2.99-.05,2.25-.06,4.49-.19,6.74-.09,1.63-.49,1.85-2.56,1.78-1.66-.06-1.84-.18-1.85-1.9-.03-5.24-.01-10.48-.01-15.72-.04,0-.07,0-.11,0Zm19.99-5.17c.08-1.95-.27-3.82-1.06-5.59-.87-1.93-2.29-3.32-4.42-3.68-3.42-.58-6.43.25-8.83,2.9-.59.65-.99,1.31-.99,2.2,0,3.16,0,6.32,0,9.48,0,.68.12,1.3.67,1.8,2.49,2.33,5.44,3.32,8.73,2.47,3.18-.83,4.97-3.13,5.57-6.38.2-1.07.34-2.13.32-3.22Z"/>
        <path class="cls-4" d="m335.29,276.32c0-5.08-.01-10.16.01-15.24,0-.7-.3-1.62.6-1.99,1.03-.42,2.14-.39,3.17.02.55.21.44.83.45,1.32.02,1.31.72,1.15,1.41.57,1.79-1.47,3.82-2.3,6.09-2.68,5.37-.9,9.31,1.16,11.49,6.14,1.94,4.42,2.07,8.9-.03,13.3-3.01,6.28-9.33,8.25-15.61,5.6-3.35-1.41-3.19-1.09-3.17,2.14.02,2.25.03,4.5-.02,6.74-.04,2.01-.19,2.12-2.15,2.14-2,.01-2.16-.09-2.18-2.07-.04-4.83-.03-9.66-.04-14.49,0-.5,0-1,0-1.5h-.03Zm4.63-4.7c0,1.75.07,3.08-.02,4.41-.09,1.39.48,2.37,1.47,3.26,4.54,4.08,11.75,1.8,13.25-4.24.63-2.54.68-5.11.1-7.68-1.17-5.22-6.49-7.56-11.12-4.82-2.53,1.49-4.16,3.56-3.8,6.74.11.91.09,1.83.11,2.33Z"/>
        <path class="cls-4" d="m603.71,264.64c0-5.75,0-11.49.01-17.24,0-.7-.28-1.54.61-1.99.66-.34,2.94-.24,3.4.16.51.44.42,1.06.43,1.62.06,2.25.08,4.49.11,6.74.06,4,.1,7.99.17,11.99.01.75.05,1.5.18,2.24.14.76.66.95,1.27.5.66-.5,1.26-1.08,1.88-1.64,2.52-2.31,5.1-4.55,7.51-6.95,1.52-1.52,3.23-1.51,5.08-1.17.73.13.77.54.27,1.01-1.15,1.09-2.33,2.14-3.48,3.23-2.11,2.01-4.18,4.06-6.31,6.05-.86.81-.89,1.41-.02,2.25,3.84,3.69,7.03,8.02,11.26,11.32.25.2.56.43.43.8-.14.39-.55.31-.86.33-.91.04-1.83-.01-2.75.06-1.18.1-2.08-.32-2.85-1.2-3.07-3.52-6.81-6.37-9.87-9.9-.22-.25-.45-.5-.72-.69-.52-.37-1-.29-1.07.4-.1.99-.1,1.99-.12,2.99-.02,2.16.02,4.33-.05,6.49-.06,1.67-.26,1.81-1.92,1.88-.33.01-.67-.03-1,0-1.34.13-1.71-.55-1.69-1.79.05-3.41.02-6.83.02-10.24,0-2.41,0-4.83,0-7.24h.05Z"/>
        <path class="cls-4" d="m642.94,271.43c-2.58,0-5.16-.05-7.74.02-1.5.04-1.68.32-1.65,1.84.07,3.49,2.35,6.44,5.74,7.32,3.33.87,6.6.44,9.85-.49.7-.2,1.56-.97,2.03.39.49,1.4.32,2.06-.96,2.57-4.41,1.75-8.99,2.04-13.47.69-4.78-1.44-7.15-5.1-7.78-10.02-.89-6.91,1.79-12.34,7.51-14.85,6.74-2.97,14.35.61,15.76,7.42.03.16.08.32.1.49.64,4.12.24,4.59-3.89,4.6-1.83,0-3.66,0-5.5,0v.03Zm-2.54-3.21h0c1.83,0,3.66.04,5.48-.03,1.48-.06,1.69-.38,1.46-1.88-.08-.49-.2-.98-.38-1.44-1.08-2.69-2.88-3.64-6.44-3.48-4.06.18-5.54,2.58-6.51,5.21-.38,1.04.06,1.6,1.16,1.6,1.74,0,3.49,0,5.23,0Z"/>
        <path class="cls-4" d="m741.9,274.53c0,2.5,0,4.99,0,7.49,0,1.15-.31,1.9-1.67,1.94-1.8.05-2.22-.12-2.6-1.45-.43-1.51-.57-1.64-1.71-.69-2.62,2.18-5.65,2.71-8.9,2.49-2.79-.19-5-1.48-6.14-4.03-1.15-2.56-.6-5.08,1.04-7.3,1.86-2.51,4.51-3.6,7.54-3.83,1.99-.15,3.99-.19,5.98-.38,1.71-.16,1.97-.53,1.88-2.22-.13-2.55-1.78-4.4-4.34-4.67-2.75-.29-5.47-.07-8.14.82-.64.21-1.59,1-2.08-.29-.6-1.61-.29-2.43,1.07-2.94,3.42-1.27,6.96-1.67,10.56-1.24,4.04.48,6.42,2.83,7.19,6.84.3,1.56.34,3.14.33,4.72-.02,1.58,0,3.16,0,4.75h-.02Zm-8.45-2.62c-.28.02-1.11.02-1.93.14-1.48.21-2.96.48-4.24,1.34-1.71,1.16-2.44,3.09-1.91,5,.55,1.99,1.72,2.8,4.1,2.9,1.99.08,3.76-.55,5.42-1.57,1.61-.99,2.42-2.38,2.46-4.32.07-3.43,0-3.57-3.9-3.49Z"/>
        <path class="cls-4" d="m787.76,271.42c-2.5,0-4.99-.04-7.49.02-1.48.03-1.7.34-1.68,1.81.04,3.37,2.24,6.27,5.49,7.24,3.14.94,6.25.73,9.33-.29.55-.18,1.1-.38,1.66-.54.3-.09.63-.22.9.13.57.74.15,2.97-.74,3.25-5.44,1.68-10.9,2.59-16.14-.63-2.68-1.65-4.29-4.09-4.89-7.22-.35-1.81-.45-3.62-.45-5.46,0-7.86,8.11-13.4,15.6-11.37,5.22,1.42,8.49,6.53,7.71,11.87-.15,1.04-.75,1.15-1.55,1.15-2.58,0-5.16,0-7.74,0v.03Zm-2.19-3.23v.02c1.41,0,2.82,0,4.23,0,2.64,0,3.07-.61,2.19-3.1-.28-.8-.68-1.51-1.32-2.08-2.16-1.89-4.64-1.96-7.26-1.27-2.53.66-3.81,2.46-4.48,4.86-.3,1.08.03,1.58,1.16,1.58,1.83,0,3.65,0,5.48,0Z"/>
        <path class="cls-4" d="m576.08,274.13c.19,2.66.07,5.32.3,7.99.14,1.64-.14,1.83-1.84,1.87-2.08.05-2.13.03-2.76-2.04-.2-.65-.55-.79-1.08-.46-.42.26-.79.61-1.19.91-2.89,2.1-6.16,2.5-9.53,1.81-5.29-1.09-7.17-7.37-3.52-11.34,2.36-2.57,5.45-3.38,8.75-3.68,1.66-.15,3.32-.23,4.98-.33,1.14-.07,1.61-.65,1.52-1.79-.27-3.53-1.93-5.34-5.28-5.27-2.6.05-5.14.23-7.62,1.08-.67.23-1.49.6-1.79-.55-.24-.9-.55-1.79.54-2.4,1.4-.78,2.92-1.21,4.47-1.51,2.81-.55,5.64-.66,8.38.29,3.5,1.21,5.48,3.71,5.64,7.44.11,2.66.02,5.33.02,7.99Zm-7.56-2.12c-1.06.11-2.63.23-4.18.47-1.41.21-2.72.74-3.75,1.78-1.99,2-1.33,5.82,1.26,6.61,2.57.78,5.07.19,7.39-1.16,1.99-1.16,2.29-3.09,2.38-5.14.11-2.52-.03-2.67-3.1-2.56Z"/>
        <path class="cls-4" d="m426.11,271.5c-2.33,0-4.67-.01-7,0-2.33.02-2.59.37-2.1,2.68.94,4.38,3.73,6.7,8.27,6.88,2.44.09,4.81-.32,7.14-1,.68-.2,1.52-.71,1.81.47.23.94.63,2-.62,2.62-.22.11-.46.21-.69.28-4.75,1.42-9.51,1.66-14.2-.2-2.24-.88-4.07-2.36-5.05-4.6-2.12-4.83-2.28-9.74.25-14.45,2.96-5.53,9.53-7.67,15.31-5.24,4.11,1.73,6.9,6.72,6.36,11.21-.14,1.17-.83,1.26-1.73,1.26-2.58-.01-5.17,0-7.75,0,0,.03,0,.06,0,.09Zm-2.48-3.18s0,.05,0,.07c1.82,0,3.65.08,5.47-.02,1.54-.09,1.84-.58,1.59-2.11-.39-2.4-2.02-4.25-4.19-4.73-3.71-.83-7.51,1.17-8.92,4.69-.69,1.72-.48,2.08,1.33,2.1,1.58.02,3.15,0,4.73,0Z"/>
        <path class="cls-4" d="m197.16,274.25c0,2.67-.02,5.33,0,8,0,.95-.18,1.57-1.33,1.66-1.99.15-2.51-.05-2.82-1.37-.32-1.39-.55-1.55-1.75-.58-2.43,1.95-5.23,2.45-8.22,2.35-3.29-.11-6.27-1.88-6.99-4.36-.92-3.18-.24-5.94,2.46-8.34,1.99-1.77,4.44-2.2,6.94-2.45,1.82-.18,3.66-.18,5.49-.33,1.56-.13,1.88-.54,1.83-2.03-.09-2.73-1.91-4.74-4.66-4.96-2.76-.22-5.49,0-8.14.92-.6.21-1.48.78-1.78-.48-.33-1.37-.04-2.37.96-2.7,3.59-1.2,7.24-1.92,11.05-1.1,4.36.94,6.61,3.54,6.77,8.03.09,2.58.02,5.17.02,7.75.05,0,.1,0,.14,0Zm-7.77-2.34c-1.13.13-2.7.27-4.27.5-1.17.17-2.24.62-3.16,1.39-1.28,1.07-1.63,2.49-1.37,4.05.25,1.5,1.07,2.7,2.58,3.08,2.93.73,5.55.02,7.95-1.85,2.02-1.57,1.44-3.73,1.54-5.74.05-1.06-.56-1.48-1.57-1.43-.41.02-.83,0-1.69,0Z"/>
        <path class="cls-4" d="m92.83,271.51c-2.33,0-4.66,0-6.99,0-2.1,0-2.52.5-2.05,2.56,1.19,5.22,4.34,6.98,10.01,6.87,1.74-.04,3.47-.39,5.16-.88.6-.17,1.38-.61,1.6.43.2.92.73,1.99-.58,2.6-1.37.64-2.82,1.05-4.31,1.2-2.57.26-5.15.29-7.7-.22-4.88-.96-7.91-4.08-8.81-8.95-.72-3.9-.25-7.6,1.6-11.13,3.17-6.05,10.88-6.91,15.18-5.09,3.73,1.58,6.5,6.83,5.99,11.72-.1,1.01-.77,1.16-1.61,1.06-2.49-.3-4.99-.17-7.48-.17Zm-2.51-3.18s0-.08,0-.11c1.83,0,3.66,0,5.49,0,1.24,0,1.55-.66,1.46-1.77-.2-2.23-1.85-4.4-4.07-4.84-4.11-.81-7.53.42-9.29,4.76-.57,1.4-.33,1.85,1.17,1.94,1.74.11,3.5.02,5.25.02Z"/>
        <path class="cls-4" d="m245.31,271.4c-2.42,0-4.83-.02-7.25,0-1.95.02-2.31.49-2,2.44.64,4.01,3.98,6.88,8.39,7.25,2.54.21,4.97-.22,7.36-1.06,1.62-.57,1.63-.55,1.84.98.25,1.81.27,1.94-1.59,2.44-4.25,1.16-8.56,1.4-12.81.09-3.3-1.02-5.57-3.24-6.76-6.52-1.19-3.29-1.42-6.66-.66-10.08.99-4.46,5.61-8.31,10.42-8.81,4.09-.42,7.56.66,10.24,3.93,1.86,2.26,2.35,4.9,2.4,7.71.02,1.28-.59,1.76-1.84,1.74-2.58-.05-5.16-.01-7.75-.01,0-.03,0-.06,0-.09Zm-2.27-2.9s0-.05,0-.08c1.91,0,3.82.05,5.73-.02.91-.03,1.56-.46,1.43-1.59-.26-2.3-2.17-4.79-4.42-5.22-3.95-.75-7.11.03-9.13,4.52-.79,1.75-.47,2.29,1.4,2.37,1.66.08,3.32.02,4.98.02Z"/>
        <path class="cls-4" d="m314.57,271.35c0,3.49,0,6.99,0,10.48,0,.98.19,2.01-1.39,2.08-2.17.09-2.54-.02-2.9-1.58-.33-1.44-.43-1.52-1.73-.51-2.95,2.28-6.23,3.05-9.86,2.28-3.74-.79-6.1-3.21-6.36-7.01-.39-5.64-.16-11.31-.15-16.96,0-1.12.56-1.46,1.55-1.41.42.02.83.03,1.25.03,1.22.02,1.77.56,1.75,1.85-.05,2.58.03,5.16.03,7.73,0,1.83-.09,3.66-.05,5.49.02,1.07.14,2.16.35,3.21.31,1.56,1.22,2.83,2.7,3.37,5.44,1.99,11-1.68,10.48-6.85-.42-4.21-.26-8.47-.33-12.72-.01-.72-.18-1.54.64-2,.53-.3,3.26-.19,3.66.16.52.45.35,1.07.35,1.62.01,3.58,0,7.15,0,10.73,0,0,.02,0,.03,0Z"/>
        <path class="cls-4" d="m442.26,271.46c0-3.5-.03-7,.01-10.5.02-1.71,2.09-2.77,3.52-1.87.43.27.29.71.37,1.1.3,1.42.62,1.59,1.74.64,2.64-2.25,5.68-3.11,9.06-2.73,4.61.51,7.64,3.06,7.71,7.87.07,5.41.15,10.83.28,16.24.03,1.32-.49,1.84-1.76,1.73-.08,0-.17,0-.25,0-2.74.08-2.8.05-2.82-2.71-.02-4,0-8,.01-12,0-1.17.02-2.33-.23-3.48-.59-2.69-2.59-4.34-5.35-4.26-1.76.05-3.47.46-4.99,1.43-1.88,1.19-3,2.73-2.94,5.12.11,4.5.07,9,.07,13.5,0,.79.34,1.86-.61,2.23-1.08.42-2.34.37-3.44-.03-.72-.26-.52-1.15-.53-1.79-.02-3.5,0-7,0-10.5.05,0,.1,0,.15,0Z"/>
        <path class="cls-4" d="m660.79,255.43c0-.94.05-1.53,0-2.11-.14-1.36.55-1.96,1.81-2.18,2.08-.36,2.44-.08,2.49,2.11.03,1.17,0,2.33.05,3.5.09,1.93.22,2.06,2.23,2.14,1.25.05,2.5-.02,3.75.03,1.69.07,1.95.36,1.92,1.88-.03,1.4-.18,1.55-1.86,1.59-1.42.03-2.83.02-4.25.02-.85,0-1.43.27-1.49,1.25-.26,4.41-.61,8.81-.21,13.22.28,3.09,1.16,3.87,4.28,3.98.67.02,1.33,0,2,.02.8.02,1.48.17,1.56,1.2.08,1.01-.04,1.96-1.2,2.1-2.73.33-5.5.67-8.08-.65-2.13-1.09-3.06-2.98-3.09-5.32-.05-4-.09-8-.13-11.99,0-.5.01-1,0-1.5-.08-2.12-.2-2.22-2.32-2.27-.25,0-.5,0-.75,0-2.05-.04-2.71-1.15-1.88-3.04.36-.81,1.03-.68,1.68-.74,1.06-.11,2.33.55,3.13-.23.88-.86.25-2.22.37-3Z"/>
        <path class="cls-4" d="m478.78,270.29c-.08,2.25-.19,4.5.08,6.74.33,2.8,1.59,4,4.35,4.14.58.03,1.17.01,1.75-.02.73-.04,1.37.03,1.44.95.06.87.05,1.68-1.09,1.9-2.32.44-4.64.62-6.93-.01-2.34-.65-3.44-2.5-3.98-4.71-.17-.72-.16-1.49-.16-2.24-.03-3.5,0-7-.05-10.5-.02-1.23.46-2.64-.29-3.66-.77-1.05-2.18-.39-3.3-.46-1.16-.08-1.36-.71-1.35-1.65.01-.92-.15-1.92,1.22-2,.42-.02.83-.07,1.25-.05,2.81.15,2.48.1,2.87-2.75.09-.66.07-1.33.08-2,.06-2.5.39-2.8,2.82-3.08.94-.11,1.23.31,1.25,1.08.05,1.75.02,3.5.11,5.25.09,1.71.23,1.78,1.97,1.74,1.41-.03,2.83-.06,4.25-.08,1.22-.02,1.52.69,1.51,1.78,0,1.12-.35,1.74-1.58,1.67-1.08-.06-2.17-.04-3.25-.04-3.03-.01-2.91-.38-2.96,3.01-.03,1.67,0,3.33,0,5Z"/>
        <path class="cls-4" d="m150.78,271.24c-.07-8.02,4.97-13.09,12.97-13.18,1.93-.02,3.82.14,5.66.77,1.46.5,2.11,1.92,1.56,3.34-.26.67-.77.49-1.24.35-2.1-.59-4.25-.73-6.43-.67-4.44.12-7.3,2.74-7.77,7.17-.19,1.74-.16,3.5.1,5.23.52,3.54,2.77,5.81,6.3,6.48,2.61.49,5.13.06,7.61-.75.6-.2,1.25-.72,1.73.15.49.88.21,2.53-.54,2.9-.66.33-1.39.55-2.11.74-2.44.67-4.93.78-7.43.58-5.68-.46-9.8-4.7-10.39-10.63-.08-.82-.01-1.66-.01-2.49Z"/>
        <path class="cls-4" d="m761.71,284.46c-1.16-.08-2.34-.05-3.48-.27-7.45-1.43-10.39-6.93-9.77-13.97.84-9.52,9.96-14.78,18.92-11.24,1.1.43,1.64,1,1.53,2.2-.12,1.43-.45,1.72-1.83,1.27-2.11-.7-4.28-.7-6.43-.49-4.98.49-8.18,4.91-7.64,10.44.18,1.84.7,3.62,1.7,5.17,1.83,2.85,4.71,3.51,7.85,3.35,1.57-.08,3.13-.36,4.67-.79.7-.2,1.63-.87,2.1.38.54,1.42.1,2.53-1.23,2.99-1.5.52-3.07.75-4.65.84-.58.03-1.16,0-1.75,0,0,.04,0,.08,0,.12Z"/>
        <path class="cls-4" d="m205.57,264.46c.04-5.75-.29-11.49-.06-17.23.03-.78-.39-1.84.65-2.19,1.09-.36,2.29-.42,3.44-.05.35.11.45.46.46.81.01.5.02,1,.03,1.5.13,11.33.31,22.65.09,33.98-.02.87.43,2.03-.66,2.44-1.08.41-2.32.3-3.45,0-.7-.19-.51-.93-.51-1.51,0-5.91,0-11.83,0-17.74Z"/>
        <path class="cls-4" d="m713.75,264.57c0,5.74,0,11.47,0,17.21,0,.73.19,1.68-.67,1.96-1.1.36-2.3.32-3.44-.02-.17-.05-.32-.38-.36-.61-.07-.4-.07-.83-.07-1.24-.04-11.39-.09-22.78-.11-34.18,0-.8-.38-1.86.43-2.33,1.02-.59,2.26-.28,3.41-.17.5.05.65.48.69.9.06.66.09,1.33.09,1.99,0,5.49,0,10.98,0,16.46.01,0,.03,0,.04,0Z"/>
        <path class="cls-4" d="m584.14,271.8c0-3.58-.02-7.15.02-10.73,0-.7-.19-1.63.71-1.96,1.03-.37,2.13-.41,3.16.06.54.25.41.84.41,1.33,0,.62-.41,1.51.42,1.75.69.2,1.07-.64,1.51-1.11.63-.67,1.33-1.25,2.11-1.74,1.44-.92,3.01-1.39,4.72-1.36.79.01,1.73-.25,1.82,1.07.12,1.69-.39,2.73-1.56,2.88-.57.07-1.17.02-1.74.08-4.33.43-7.11,3.46-7.11,7.79,0,3.91.06,7.82.08,11.72,0,2.31-.03,2.33-2.39,2.34-2.28,0-2.27,0-2.27-2.38,0-3.24,0-6.49,0-9.73.04,0,.09,0,.13,0Z"/>
        <path class="cls-4" d="m322.72,271.52c0-3.57-.02-7.14,0-10.71.01-1.96.07-1.98,1.91-2.06,2.51-.1,2.75.09,2.74,2.56,0,6.73-.05,13.45-.1,20.18,0,.8.26,1.88-.64,2.24-1.07.44-2.32.35-3.43,0-.77-.24-.54-1.12-.54-1.76-.01-3.49,0-6.98,0-10.46.02,0,.03,0,.05,0Z"/>
        <path class="cls-4" d="m144.11,271.66c0,3.33,0,6.66,0,9.99,0,2.21-.02,2.24-2.19,2.27-.5,0-1-.02-1.5-.03-.73-.01-1.03-.44-1.06-1.11-.02-.42-.01-.83-.01-1.25.05-6.49.1-12.98.15-19.47,0-.33,0-.67.03-1,.13-1.92,2.28-2.97,3.95-1.93.71.44.54,1.16.54,1.8.02,3.58,0,7.16,0,10.74.02,0,.05,0,.07,0Z"/>
        <path class="cls-4" d="m141.59,252.42c-2.24-.01-2.35-.13-2.36-2.44-.01-2.31.24-2.55,2.57-2.52,2.41.03,2.73.31,2.75,2.45.01,2.19-.38,2.53-2.95,2.51Z"/>
        <path class="cls-4" d="m324.64,252.37c-1.87,0-2.3-.43-2.33-2.31-.03-1.95.63-2.59,2.7-2.63,2.03-.03,2.55.45,2.58,2.38.04,2.08-.52,2.56-2.96,2.56Z"/>
      </g>
    </g>
  </g>
</svg>