<?xml version="1.0" encoding="UTF-8"?>
<svg id="Layer_1" xmlns="http://www.w3.org/2000/svg" version="1.1" xmlns:xlink="http://www.w3.org/1999/xlink" viewBox="0 0 1024 1024">
  <!-- Generator: Adobe Illustrator 30.1.0, SVG Export Plug-In . SVG Version: 2.1.1 Build 136)  -->
  <defs>
    <style>
      .st0 {
        fill: #00829b;
      }

      .st1 {
        fill: #098e9b;
      }

      .st2 {
        fill: #007f99;
      }

      .st3 {
        fill: #078e9b;
      }

      .st4 {
        fill: #058796;
      }

      .st5 {
        fill: #00849c;
      }

      .st6 {
        fill: #048998;
      }

      .st7 {
        fill: #068e9b;
      }

      .st8 {
        fill: #00899d;
      }

      .st9 {
        fill: #0296a5;
      }

      .st10 {
        fill: #00889d;
      }

      .st11 {
        fill: #018d9b;
      }

      .st12 {
        fill: #0695a4;
      }

      .st13 {
        fill: #056c7c;
      }

      .st14 {
        fill: #0295a3;
      }

      .st15 {
        fill: #007895;
      }

      .st16 {
        fill: #00879c;
      }

      .st17 {
        fill: #0198a6;
      }

      .st18 {
        fill: #058896;
      }

      .st19 {
        fill: #019caa;
      }

      .st20 {
        fill: #048c9a;
      }

      .st21 {
        fill: #038f9d;
      }

      .st22 {
        fill: #048e9b;
      }

      .st23 {
        fill: #0197a5;
      }

      .st24 {
        fill: #029dab;
      }

      .st25 {
        fill: #038f9e;
      }

      .st26 {
        fill: #008c9c;
      }

      .st27 {
        fill: #00a0ae;
      }

      .st28 {
        fill: #007f9a;
      }

      .st29 {
        fill: #00809a;
      }

      .st30 {
        fill: none;
      }

      .st31 {
        fill: #029dac;
      }

      .st32 {
        fill: #019ead;
      }

      .st33 {
        fill: #00879d;
      }

      .st34 {
        clip-path: url(#clippath-1);
      }

      .st35 {
        fill: #01a1af;
      }

      .st36 {
        fill: #019ba9;
      }

      .st37 {
        fill: #008b9d;
      }

      .st38 {
        fill: #007795;
      }

      .st39 {
        fill: #039baa;
      }

      .st40 {
        fill: #009fad;
      }

      .st41 {
        fill: #019cab;
      }

      .st42 {
        fill: #048a99;
      }

      .st43 {
        fill: #00859c;
      }

      .st44 {
        fill: #0c8e9b;
      }

      .st45 {
        fill: #039aa9;
      }

      .st46 {
        fill: #0598a6;
      }

      .st47 {
        fill: #0199a7;
      }

      .st48 {
        fill: #00869c;
      }

      .st49 {
        fill: #0293a1;
      }

      .st50 {
        fill: #048a98;
      }

      .st51 {
        fill: #008d9b;
      }

      .st52 {
        fill: #007a97;
      }

      .st53 {
        fill: #007694;
      }

      .st54 {
        fill: #007d98;
      }

      .st55 {
        fill: #0292a0;
      }

      .st56 {
        fill: #0b8e9b;
      }

      .st57 {
        fill: #00a0ad;
      }

      .st58 {
        fill: #03909e;
      }

      .st59 {
        fill: #028b9b;
      }

      .st60 {
        fill: #0598a7;
      }

      .st61 {
        fill: #019fad;
      }

      .st62 {
        fill: #008b9c;
      }

      .st63 {
        fill: #009fac;
      }

      .st64 {
        fill: #019dac;
      }

      .st65 {
        fill: #0291a0;
      }

      .st66 {
        fill: #0597a6;
      }

      .st67 {
        fill: #007896;
      }

      .st68 {
        fill: #078c9c;
      }

      .st69 {
        fill: #008d9c;
      }

      .st70 {
        fill: #007594;
      }

      .st71 {
        fill: #00819b;
      }

      .st72 {
        fill: #049aa8;
      }

      .st73 {
        fill: #0293a2;
      }

      .st74 {
        fill: #0294a2;
      }

      .st75 {
        fill: #008a9d;
      }

      .st76 {
        fill: #038e9c;
      }

      .st77 {
        fill: #028d9b;
      }

      .st78 {
        fill: #00a1af;
      }

      .st79 {
        fill: #02a1ad;
      }

      .st80 {
        fill: #00839b;
      }

      .st81 {
        fill: #048d9c;
      }

      .st82 {
        fill: #009eac;
      }

      .st83 {
        fill: #058897;
      }

      .st84 {
        fill: #03919f;
      }

      .st85 {
        fill: #007996;
      }

      .st86 {
        fill: #0199a8;
      }

      .st87 {
        clip-path: url(#clippath-2);
      }

      .st88 {
        fill: #0296a4;
      }

      .st89 {
        fill: #048b9a;
      }

      .st90 {
        fill: #007b97;
      }

      .st91 {
        fill: #039caa;
      }

      .st92 {
        fill: #019aa8;
      }

      .st93 {
        fill: #078896;
      }

      .st94 {
        fill: #07707f;
      }

      .st95 {
        fill: #00a0af;
      }

      .st96 {
        fill: #007c98;
      }

      .st97 {
        fill: #048c9b;
      }

      .st98 {
        fill: #007e99;
      }

      .st99 {
        clip-path: url(#clippath);
      }

      .st100 {
        fill: #0499a8;
      }

      .st101 {
        fill: #0696a5;
      }

      .st102 {
        fill: #007d99;
      }

      .st103 {
        fill: #00819a;
      }
    </style>
    <clipPath id="clippath">
      <path class="st30" d="M903.7,360.1c3,5.3,2.1,6.7-2.9,8.6-57.6,1.3-102.9,33.9-140.8,74.7-6.5,3.5-12,7.9-16.7,13.1-4.4,2.3-11.3,7.9-15.9,12.6l-215.2,214.7-158-156.7c-23.9-23.7-45.2-48.3-70.7-68-13.2-10.7-19.7-16.1-19.7-16.1-38.3-39.9-83.3-75.2-141.7-73.3l-7.6-5.2c28.6-20.2,58.9-36.6,97.2-38.9,53.1-3.3,107.4,7.3,146.9,45.6l154,149.5,146.7-144.7c65.5-64.7,172.2-68.3,244.4-15.9Z"/>
    </clipPath>
    <clipPath id="clippath-1">
      <path class="st30" d="M114.5,364.5c47.5-3.6,92.8,16.5,127.7,50.4,15,14.6,31.3,27,41.3,44.2-18.6-14.4-48.7-19.1-70.2-14.8-41.3,8.1-65.5,46.7-60.3,83.8s42.2,68.6,83.3,64.7,10.9-.8,14.4,2.1l.3,114.4c-86.9,10.2-168.4-40.6-200.2-119.3-32.7-80.9-6.3-175.8,63.7-225.3Z"/>
    </clipPath>
    <clipPath id="clippath-2">
      <path class="st30" d="M950.7,407.6c1.5,1.7-.9,1.7-2.8,1.8-23.9-8.1-47.7-10.2-71.5-8.2-15.2,6.4-30.5,12.6-45.9,18.4-15.4,11.3-31.7,18.9-48.8,22.8-13.1,3.1-26.3,7.7-38.2,14.1-.2-3.3,2.1-5.9,4.9-8.8,41.8-43.8,82.9-81.3,147.3-83.5,3.7-.1,6.8-2.1,8.2-4.1,19.5,14.2,32.8,28.6,46.9,47.5Z"/>
    </clipPath>
  </defs>
  <path class="st78" d="M640.7,79.9l-3.7,4.7c-82.7-36.6-163.6,19.4-189.8,99.7-5.2,13.8-7,26.4-7.1,40.2l-1,167.3-64.1-62.9c-16.6-16.3-36.7-32.6-50.4-51-4.1-24.3-2.5-51.9-.5-76.4,6.1-72.8,52.9-133.8,116-159.6,70.6-28.9,147.6-12.7,200.7,38Z"/>
  <path class="st59" d="M678.6,132.3c14.3,27.3,21.4,54.7,21.1,86.2l-.6,80.1h-113.8s-1.7-90.3-1.7-90.3c-.8-44.5-49.5-72.7-91.4-62.1-2.3-4.8-.8-7.3,1.6-11,34.5-52.7,148.5-58.4,184.9-2.9Z"/>
  <path class="st94" d="M640.7,79.9c17.3,16.5,27.9,33.2,37.9,52.4-16-9-29.4-21.9-48.8-28.1-49.8-16.1-107.9.3-137.7,42-21.3,5.4-36.4,21.9-45,38.2,2.9-64.2,92.5-131.3,153.9-115l39.6,10.5Z"/>
  <g>
    <g class="st99">
      <polygon class="st4" points="158.1 307.7 114.5 416.8 114.5 307.7 158.1 307.7"/>
      <polygon class="st4" points="170.3 307.7 114.5 447.5 114.5 416.8 158.1 307.7 170.3 307.7"/>
      <polygon class="st18" points="182.6 307.7 114.5 478.2 114.5 447.5 170.3 307.7 182.6 307.7"/>
      <polygon class="st83" points="194.8 307.7 114.5 508.9 114.5 478.2 182.6 307.7 194.8 307.7"/>
      <polygon class="st6" points="207.1 307.7 117.5 532.2 114.5 531.1 114.5 508.9 194.8 307.7 207.1 307.7"/>
      <polygon class="st50" points="219.3 307.7 128 536.4 117.5 532.2 207.1 307.7 219.3 307.7"/>
      <polygon class="st42" points="231.6 307.7 138.6 540.7 128 536.4 219.3 307.7 231.6 307.7"/>
      <polygon class="st89" points="243.8 307.7 149.2 544.9 138.6 540.7 231.6 307.7 243.8 307.7"/>
      <polygon class="st20" points="256.1 307.7 159.7 549.1 149.2 544.9 243.8 307.7 256.1 307.7"/>
      <polygon class="st97" points="268.4 307.7 170.3 553.3 159.7 549.1 256.1 307.7 268.4 307.7"/>
      <polygon class="st81" points="280.6 307.7 180.9 557.5 170.3 553.3 268.4 307.7 280.6 307.7"/>
      <polygon class="st76" points="292.9 307.7 191.5 561.8 180.9 557.5 280.6 307.7 292.9 307.7"/>
      <polygon class="st21" points="305.1 307.7 202 566 191.5 561.8 292.9 307.7 305.1 307.7"/>
      <polygon class="st25" points="317.4 307.7 212.6 570.2 202 566 305.1 307.7 317.4 307.7"/>
      <polygon class="st58" points="329.6 307.7 223.2 574.4 212.6 570.2 317.4 307.7 329.6 307.7"/>
      <polygon class="st84" points="341.9 307.7 233.7 578.6 223.2 574.4 329.6 307.7 341.9 307.7"/>
      <polygon class="st65" points="354.1 307.7 244.3 582.8 233.7 578.6 341.9 307.7 354.1 307.7"/>
      <polygon class="st55" points="366.4 307.7 254.9 587.1 244.3 582.8 354.1 307.7 366.4 307.7"/>
      <polygon class="st49" points="378.6 307.7 265.5 591.3 254.9 587.1 366.4 307.7 378.6 307.7"/>
      <polygon class="st73" points="390.9 307.7 276 595.5 265.5 591.3 378.6 307.7 390.9 307.7"/>
      <polygon class="st74" points="403.2 307.7 286.6 599.7 276 595.5 390.9 307.7 403.2 307.7"/>
      <polygon class="st14" points="415.4 307.7 297.2 603.9 286.6 599.7 403.2 307.7 415.4 307.7"/>
      <polygon class="st88" points="427.7 307.7 307.7 608.2 297.2 603.9 415.4 307.7 427.7 307.7"/>
      <polygon class="st9" points="439.9 307.7 318.3 612.4 307.7 608.2 427.7 307.7 439.9 307.7"/>
      <polygon class="st23" points="452.2 307.7 328.9 616.6 318.3 612.4 439.9 307.7 452.2 307.7"/>
      <polygon class="st17" points="464.4 307.7 339.5 620.8 328.9 616.6 452.2 307.7 464.4 307.7"/>
      <polygon class="st47" points="476.7 307.7 350 625 339.5 620.8 464.4 307.7 476.7 307.7"/>
      <polygon class="st86" points="488.9 307.7 360.6 629.2 350 625 476.7 307.7 488.9 307.7"/>
      <polygon class="st92" points="501.2 307.7 371.2 633.5 360.6 629.2 488.9 307.7 501.2 307.7"/>
      <polygon class="st36" points="513.4 307.7 381.7 637.7 371.2 633.5 501.2 307.7 513.4 307.7"/>
      <polygon class="st19" points="525.7 307.7 392.3 641.9 381.7 637.7 513.4 307.7 525.7 307.7"/>
      <polygon class="st41" points="537.9 307.7 402.9 646.1 392.3 641.9 525.7 307.7 537.9 307.7"/>
      <polygon class="st64" points="550.2 307.7 413.4 650.3 402.9 646.1 537.9 307.7 550.2 307.7"/>
      <polygon class="st82" points="562.5 307.7 424 654.6 413.4 650.3 550.2 307.7 562.5 307.7"/>
      <polygon class="st40" points="574.7 307.7 434.6 658.8 424 654.6 562.5 307.7 574.7 307.7"/>
      <polygon class="st27" points="587 307.7 445.2 663 434.6 658.8 574.7 307.7 587 307.7"/>
      <polygon class="st95" points="599.2 307.7 455.7 667.2 445.2 663 587 307.7 599.2 307.7"/>
      <polygon class="st95" points="673 307.7 522.9 683.8 497.3 683.8 455.7 667.2 599.2 307.7 673 307.7"/>
      <polygon class="st27" points="746.8 307.7 596.7 683.8 522.9 683.8 673 307.7 746.8 307.7"/>
      <polygon class="st57" points="820.5 307.7 670.4 683.8 596.7 683.8 746.8 307.7 820.5 307.7"/>
      <polygon class="st63" points="846.5 307.7 887.7 324.1 744.2 683.8 670.4 683.8 820.5 307.7 846.5 307.7"/>
      <polygon class="st63" points="887.7 324.1 906.7 331.7 906.7 683.8 744.2 683.8 887.7 324.1"/>
    </g>
    <path class="st79" d="M950.7,407.6c40.9,54.8,48.8,129.6,16.6,195.2-27.3,55.4-84.6,100.7-152,106-37.2,2.9-87.3-4.1-116,4.8l-5.6,5.5c-54,2.6-88,40-107.1,87.4l-3.6,1.7c.7-24.6,7.6-49.2,26.5-68.3l145.2-146.9,55.3-1.2c33.7-.7,57.3-32.6,61.3-64.5,3.9-30.8-11.8-61-39.2-76.8.3-6.4,3.4-.4,3-.4-6.2.9-5-3-3-7,7.9-15.7,26.7-38.4,44.5-41.9l7.3-6c20.1-3.2,49.8,2.2,67.1,12.4Z"/>
    <g class="st34">
      <polygon class="st95" points="283.5 437.4 145.6 360.9 283.5 360.9 283.5 437.4"/>
      <polygon class="st95" points="283.5 457.3 109.6 360.9 145.6 360.9 283.5 437.4 283.5 457.3"/>
      <polygon class="st27" points="283.5 477.3 73.6 360.9 109.6 360.9 283.5 457.3 283.5 477.3"/>
      <polygon class="st61" points="283.5 497.3 60.5 373.6 67.6 360.9 73.6 360.9 283.5 477.3 283.5 497.3"/>
      <polygon class="st32" points="283.5 517.3 52 388.9 60.5 373.6 283.5 497.3 283.5 517.3"/>
      <polygon class="st31" points="283.5 537.3 43.6 404.2 52 388.9 283.5 517.3 283.5 537.3"/>
      <polygon class="st24" points="283.5 557.3 35.1 419.5 43.6 404.2 283.5 537.3 283.5 557.3"/>
      <polygon class="st91" points="283.5 577.2 26.6 434.7 35.1 419.5 283.5 557.3 283.5 577.2"/>
      <polygon class="st39" points="283.5 597.2 18.1 450 26.6 434.7 283.5 577.2 283.5 597.2"/>
      <polygon class="st45" points="283.5 617.2 18.1 470 18.1 450.1 18.1 450 283.5 597.2 283.5 617.2"/>
      <polygon class="st72" points="283.5 637.2 18.1 489.9 18.1 470 283.5 617.2 283.5 637.2"/>
      <polygon class="st100" points="283.5 657.2 18.1 509.9 18.1 489.9 283.5 637.2 283.5 657.2"/>
      <polygon class="st60" points="283.5 661.8 277 673.6 18.1 529.9 18.1 509.9 283.5 657.2 283.5 661.8"/>
      <polygon class="st46" points="277 673.6 268.6 688.8 18.1 549.9 18.1 529.9 277 673.6"/>
      <polygon class="st66" points="268.6 688.8 260.1 704.1 18.1 569.9 18.1 549.9 268.6 688.8"/>
      <polygon class="st101" points="260.1 704.1 251.7 719.2 251.3 719.2 18.1 589.9 18.1 569.9 260.1 704.1"/>
      <polygon class="st12" points="215.3 719.2 18.1 609.8 18.1 589.9 251.3 719.2 215.3 719.2"/>
      <polygon class="st12" points="18.1 609.8 215.3 719.2 18.1 719.2 18.1 609.8"/>
    </g>
    <path class="st68" d="M698.9,821.7c-3.3,71.7-51.9,133.5-114.6,160-70.8,30-148.1,12.3-200.8-37.5l7.9-4.7c59,9.2,119.1-11.9,152.7-62.5l13.8-13.6c5.1-11,24-29.5,24.6-41.7,6.1-41.9,49.8-70.5,89.8-75.7,25.9-3.4,26.7-2,24.8,24l1.8,51.6Z"/>
    <path class="st35" d="M557.8,863.6c-7,15.1-18.8,33-34.9,45.9-45.9,36.9-83.8,41.4-139.5,34.8-38.7-36.5-61.2-84.9-60.8-142.4l1.1-153.5,113.8,112.7.3,41.3c.2,30.9,16.1,56.1,41.3,68.8,26.8,13.4,54.9,9.2,78.6-7.6Z"/>
    <g class="st87">
      <polygon class="st70" points="777.4 360.1 768.4 456.5 743.2 456.5 743.2 360.1 777.4 360.1"/>
      <polygon class="st70" points="778.8 360.1 769.8 456.5 768.4 456.5 777.4 360.1 778.8 360.1"/>
      <polygon class="st70" points="780.2 360.1 771.2 456.5 769.8 456.5 778.8 360.1 780.2 360.1"/>
      <polygon class="st70" points="781.6 360.1 772.5 456.5 771.2 456.5 780.2 360.1 781.6 360.1"/>
      <polygon class="st53" points="783 360.1 773.9 456.5 772.5 456.5 781.6 360.1 783 360.1"/>
      <polygon class="st53" points="784.4 360.1 775.3 456.5 773.9 456.5 783 360.1 784.4 360.1"/>
      <polygon class="st53" points="785.7 360.1 776.7 456.5 775.3 456.5 784.4 360.1 785.7 360.1"/>
      <polygon class="st53" points="787.1 360.1 778.1 456.5 776.7 456.5 785.7 360.1 787.1 360.1"/>
      <polygon class="st38" points="788.5 360.1 779.5 456.5 778.1 456.5 787.1 360.1 788.5 360.1"/>
      <polygon class="st38" points="789.9 360.1 780.9 456.5 779.5 456.5 788.5 360.1 789.9 360.1"/>
      <polygon class="st38" points="791.3 360.1 782.3 456.5 780.9 456.5 789.9 360.1 791.3 360.1"/>
      <polygon class="st15" points="792.7 360.1 783.7 456.5 782.3 456.5 791.3 360.1 792.7 360.1"/>
      <polygon class="st15" points="794.1 360.1 785.1 456.5 783.7 456.5 792.7 360.1 794.1 360.1"/>
      <polygon class="st67" points="795.5 360.1 786.4 456.5 785.1 456.5 794.1 360.1 795.5 360.1"/>
      <polygon class="st85" points="796.9 360.1 787.8 456.5 786.4 456.5 795.5 360.1 796.9 360.1"/>
      <polygon class="st85" points="798.3 360.1 789.2 456.5 787.8 456.5 796.9 360.1 798.3 360.1"/>
      <polygon class="st85" points="799.6 360.1 790.6 456.5 789.2 456.5 798.3 360.1 799.6 360.1"/>
      <polygon class="st52" points="801 360.1 792 456.5 790.6 456.5 799.6 360.1 801 360.1"/>
      <polygon class="st52" points="802.4 360.1 793.4 456.5 792 456.5 801 360.1 802.4 360.1"/>
      <polygon class="st52" points="803.8 360.1 794.8 456.5 793.4 456.5 802.4 360.1 803.8 360.1"/>
      <polygon class="st90" points="805.2 360.1 796.2 456.5 794.8 456.5 803.8 360.1 805.2 360.1"/>
      <polygon class="st90" points="806.6 360.1 797.6 456.5 796.2 456.5 805.2 360.1 806.6 360.1"/>
      <polygon class="st90" points="808 360.1 799 456.5 797.6 456.5 806.6 360.1 808 360.1"/>
      <polygon class="st96" points="809.4 360.1 800.3 456.5 799 456.5 808 360.1 809.4 360.1"/>
      <polygon class="st96" points="810.8 360.1 801.7 456.5 800.3 456.5 809.4 360.1 810.8 360.1"/>
      <polygon class="st96" points="812.2 360.1 803.1 456.5 801.7 456.5 810.8 360.1 812.2 360.1"/>
      <polygon class="st54" points="813.6 360.1 804.5 456.5 803.1 456.5 812.2 360.1 813.6 360.1"/>
      <polygon class="st54" points="814.9 360.1 805.9 456.5 804.5 456.5 813.6 360.1 814.9 360.1"/>
      <polygon class="st54" points="816.3 360.1 807.3 456.5 805.9 456.5 814.9 360.1 816.3 360.1"/>
      <polygon class="st102" points="817.7 360.1 808.7 456.5 807.3 456.5 816.3 360.1 817.7 360.1"/>
      <polygon class="st98" points="819.1 360.1 810.1 456.5 808.7 456.5 817.7 360.1 819.1 360.1"/>
      <polygon class="st98" points="820.5 360.1 811.5 456.5 810.1 456.5 819.1 360.1 820.5 360.1"/>
      <polygon class="st98" points="821.9 360.1 812.9 456.5 811.5 456.5 820.5 360.1 821.9 360.1"/>
      <polygon class="st2" points="823.3 360.1 814.3 456.5 812.9 456.5 821.9 360.1 823.3 360.1"/>
      <polygon class="st2" points="824.7 360.1 815.6 456.5 814.3 456.5 823.3 360.1 824.7 360.1"/>
      <polygon class="st28" points="826.1 360.1 817 456.5 815.6 456.5 824.7 360.1 826.1 360.1"/>
      <polygon class="st29" points="827.5 360.1 818.4 456.5 817 456.5 826.1 360.1 827.5 360.1"/>
      <polygon class="st29" points="828.8 360.1 819.8 456.5 818.4 456.5 827.5 360.1 828.8 360.1"/>
      <polygon class="st29" points="830.2 360.1 821.2 456.5 819.8 456.5 828.8 360.1 830.2 360.1"/>
      <polygon class="st29" points="831.6 360.1 822.6 456.5 821.2 456.5 830.2 360.1 831.6 360.1"/>
      <polygon class="st103" points="833 360.1 824 456.5 822.6 456.5 831.6 360.1 833 360.1"/>
      <polygon class="st103" points="834.4 360.1 825.4 456.5 824 456.5 833 360.1 834.4 360.1"/>
      <polygon class="st71" points="835.8 360.1 826.8 456.5 825.4 456.5 834.4 360.1 835.8 360.1"/>
      <polygon class="st0" points="837.2 360.1 828.2 456.5 826.8 456.5 835.8 360.1 837.2 360.1"/>
      <polygon class="st0" points="838.6 360.1 829.5 456.5 828.2 456.5 837.2 360.1 838.6 360.1"/>
      <polygon class="st0" points="840 360.1 830.9 456.5 829.5 456.5 838.6 360.1 840 360.1"/>
      <polygon class="st0" points="841.4 360.1 832.3 456.5 830.9 456.5 840 360.1 841.4 360.1"/>
      <polygon class="st80" points="842.7 360.1 833.7 456.5 832.3 456.5 841.4 360.1 842.7 360.1"/>
      <polygon class="st80" points="844.1 360.1 835.1 456.5 833.7 456.5 842.7 360.1 844.1 360.1"/>
      <polygon class="st80" points="845.5 360.1 836.5 456.5 835.1 456.5 844.1 360.1 845.5 360.1"/>
      <polygon class="st5" points="846.9 360.1 837.9 456.5 836.5 456.5 845.5 360.1 846.9 360.1"/>
      <polygon class="st5" points="848.3 360.1 839.3 456.5 837.9 456.5 846.9 360.1 848.3 360.1"/>
      <polygon class="st5" points="849.7 360.1 840.7 456.5 839.3 456.5 848.3 360.1 849.7 360.1"/>
      <polygon class="st5" points="851.1 360.1 842.1 456.5 840.7 456.5 849.7 360.1 851.1 360.1"/>
      <polygon class="st43" points="852.5 360.1 843.4 456.5 842.1 456.5 851.1 360.1 852.5 360.1"/>
      <polygon class="st43" points="853.9 360.1 844.8 456.5 843.4 456.5 852.5 360.1 853.9 360.1"/>
      <polygon class="st43" points="855.3 360.1 846.2 456.5 844.8 456.5 853.9 360.1 855.3 360.1"/>
      <polygon class="st43" points="856.7 360.1 847.6 456.5 846.2 456.5 855.3 360.1 856.7 360.1"/>
      <polygon class="st43" points="858 360.1 849 456.5 847.6 456.5 856.7 360.1 858 360.1"/>
      <polygon class="st48" points="859.4 360.1 850.4 456.5 849 456.5 858 360.1 859.4 360.1"/>
      <polygon class="st48" points="860.8 360.1 851.8 456.5 850.4 456.5 859.4 360.1 860.8 360.1"/>
      <polygon class="st48" points="862.2 360.1 853.2 456.5 851.8 456.5 860.8 360.1 862.2 360.1"/>
      <polygon class="st48" points="863.6 360.1 854.6 456.5 853.2 456.5 862.2 360.1 863.6 360.1"/>
      <polygon class="st16" points="865 360.1 856 456.5 854.6 456.5 863.6 360.1 865 360.1"/>
      <polygon class="st33" points="866.4 360.1 857.4 456.5 856 456.5 865 360.1 866.4 360.1"/>
      <polygon class="st33" points="867.8 360.1 858.7 456.5 857.4 456.5 866.4 360.1 867.8 360.1"/>
      <polygon class="st33" points="869.2 360.1 860.1 456.5 858.7 456.5 867.8 360.1 869.2 360.1"/>
      <polygon class="st33" points="870.6 360.1 861.5 456.5 860.1 456.5 869.2 360.1 870.6 360.1"/>
      <polygon class="st10" points="871.9 360.1 862.9 456.5 861.5 456.5 870.6 360.1 871.9 360.1"/>
      <polygon class="st10" points="873.3 360.1 864.3 456.5 862.9 456.5 871.9 360.1 873.3 360.1"/>
      <polygon class="st10" points="874.7 360.1 865.7 456.5 864.3 456.5 873.3 360.1 874.7 360.1"/>
      <polygon class="st10" points="876.1 360.1 867.1 456.5 865.7 456.5 874.7 360.1 876.1 360.1"/>
      <polygon class="st10" points="877.5 360.1 868.5 456.5 867.1 456.5 876.1 360.1 877.5 360.1"/>
      <polygon class="st8" points="878.9 360.1 869.9 456.5 868.5 456.5 877.5 360.1 878.9 360.1"/>
      <polygon class="st8" points="880.3 360.1 871.3 456.5 869.9 456.5 878.9 360.1 880.3 360.1"/>
      <polygon class="st8" points="881.7 360.1 872.6 456.5 871.3 456.5 880.3 360.1 881.7 360.1"/>
      <polygon class="st8" points="883.1 360.1 874 456.5 872.6 456.5 881.7 360.1 883.1 360.1"/>
      <polygon class="st8" points="884.5 360.1 875.4 456.5 874 456.5 883.1 360.1 884.5 360.1"/>
      <polygon class="st75" points="885.8 360.1 876.8 456.5 875.4 456.5 884.5 360.1 885.8 360.1"/>
      <polygon class="st75" points="887.2 360.1 878.2 456.5 876.8 456.5 885.8 360.1 887.2 360.1"/>
      <polygon class="st75" points="888.6 360.1 879.6 456.5 878.2 456.5 887.2 360.1 888.6 360.1"/>
      <polygon class="st75" points="890 360.1 881 456.5 879.6 456.5 888.6 360.1 890 360.1"/>
      <polygon class="st75" points="891.4 360.1 882.4 456.5 881 456.5 890 360.1 891.4 360.1"/>
      <polygon class="st75" points="892.8 360.1 883.8 456.5 882.4 456.5 891.4 360.1 892.8 360.1"/>
      <polygon class="st37" points="894.2 360.1 885.2 456.5 883.8 456.5 892.8 360.1 894.2 360.1"/>
      <polygon class="st37" points="895.6 360.1 886.5 456.5 885.2 456.5 894.2 360.1 895.6 360.1"/>
      <polygon class="st62" points="897 360.1 887.9 456.5 886.5 456.5 895.6 360.1 897 360.1"/>
      <polygon class="st62" points="898.4 360.1 889.3 456.5 887.9 456.5 897 360.1 898.4 360.1"/>
      <polygon class="st62" points="899.7 360.1 890.7 456.5 889.3 456.5 898.4 360.1 899.7 360.1"/>
      <polygon class="st62" points="901.1 360.1 892.1 456.5 890.7 456.5 899.7 360.1 901.1 360.1"/>
      <polygon class="st62" points="902.5 360.1 893.5 456.5 892.1 456.5 901.1 360.1 902.5 360.1"/>
      <polygon class="st26" points="903.9 360.1 894.9 456.5 893.5 456.5 902.5 360.1 903.9 360.1"/>
      <polygon class="st26" points="905.3 360.1 896.3 456.5 894.9 456.5 903.9 360.1 905.3 360.1"/>
      <polygon class="st26" points="906.7 360.1 897.7 456.5 896.3 456.5 905.3 360.1 906.7 360.1"/>
      <polygon class="st26" points="908.1 360.1 899.1 456.5 897.7 456.5 906.7 360.1 908.1 360.1"/>
      <polygon class="st26" points="909.5 360.1 900.4 456.5 899.1 456.5 908.1 360.1 909.5 360.1"/>
      <polygon class="st26" points="910.9 360.1 901.8 456.5 900.4 456.5 909.5 360.1 910.9 360.1"/>
      <polygon class="st26" points="912.3 360.1 903.2 456.5 901.8 456.5 910.9 360.1 912.3 360.1"/>
      <polygon class="st69" points="913.7 360.1 904.6 456.5 903.2 456.5 912.3 360.1 913.7 360.1"/>
      <polygon class="st69" points="915 360.1 906 456.5 904.6 456.5 913.7 360.1 915 360.1"/>
      <polygon class="st69" points="916.4 360.1 907.4 456.5 906 456.5 915 360.1 916.4 360.1"/>
      <polygon class="st51" points="917.8 360.1 908.8 456.5 907.4 456.5 916.4 360.1 917.8 360.1"/>
      <polygon class="st51" points="919.2 360.1 910.2 456.5 908.8 456.5 917.8 360.1 919.2 360.1"/>
      <polygon class="st51" points="920.6 360.1 911.6 456.5 910.2 456.5 919.2 360.1 920.6 360.1"/>
      <polygon class="st51" points="922 360.1 913 456.5 911.6 456.5 920.6 360.1 922 360.1"/>
      <polygon class="st11" points="923.4 360.1 914.4 456.5 913 456.5 922 360.1 923.4 360.1"/>
      <polygon class="st77" points="924.8 360.1 915.7 456.5 914.4 456.5 923.4 360.1 924.8 360.1"/>
      <polygon class="st22" points="926.2 360.1 917.1 456.5 915.7 456.5 924.8 360.1 926.2 360.1"/>
      <polygon class="st7" points="927.6 360.1 918.5 456.5 917.1 456.5 926.2 360.1 927.6 360.1"/>
      <polygon class="st3" points="928.9 360.1 919.9 456.5 918.5 456.5 927.6 360.1 928.9 360.1"/>
      <polygon class="st1" points="930.3 360.1 921.3 456.5 919.9 456.5 928.9 360.1 930.3 360.1"/>
      <polygon class="st56" points="931.7 360.1 922.7 456.5 921.3 456.5 930.3 360.1 931.7 360.1"/>
      <polygon class="st44" points="933.1 360.1 924.1 456.5 922.7 456.5 931.7 360.1 933.1 360.1"/>
      <polygon class="st44" points="924.1 456.5 933.1 360.1 952.2 360.1 952.2 456.5 924.1 456.5"/>
    </g>
    <path class="st13" d="M699.2,713.6l-.3,108.1c1-21.9-6.7-46.9-2.8-71.3-45-1.7-85.1,20-107.5,57.8-2.2,3.7-6,10.1-6.2,13.6l.4-13.7c8.7-25.4,19.2-50.6,42.3-68.4,21.5-16.6,48.4-27.3,74.1-26.1Z"/>
    <path class="st93" d="M876.3,401.2c-13.2,5.3-46.6,51.9-41.3,49.1-.8.4-2,.7-3.2.1-15-8.6-33.7-8.4-50.1-8,14.4-3.5,41-36.6,94.7-41.2Z"/>
  </g>
</svg>